<svg xmlns="http://www.w3.org/2000/svg" width="44.563" height="47.25"><path d="M22.324 6.329c4.622 0 8.37 2.549 8.37 9.968 0 2.866-4.143 11.354-8.37 11.354s-8.369-8.557-8.369-11.357c0-7.548 3.745-9.965 8.369-9.965zm-5.6 14.465h11.137v11.574H16.724V20.794zm11.263 6.76H16.833L.011 36.37v10.877h44.556V36.194zm-13.873-13.2s-.435-10.351 9.745-13.222l-.259.783L27.341 0l-.87 2 .957 1.828.433.436.609.087.261.348 2.175 3.045-1.392 1.305.609.7 1.827 1.479-.26.866-1.131 1.566zm.261-1.392l.435-5.307.435-1.218 1.653-.7-.698-1.299.176-1.044 1.044.087.87-.7.957-.261.609 1.218z" fill="#ddd" fill-rule="evenodd" opacity=".5"/></svg>