<svg xmlns="http://www.w3.org/2000/svg" width="44.563" height="47.25" viewBox="0 0 44.563 47.25">
  <metadata><?xpacket begin="﻿" id="W5M0MpCehiHzreSzNTczkc9d"?>
<x:xmpmeta xmlns:x="adobe:ns:meta/" x:xmptk="Adobe XMP Core 5.6-c142 79.160924, 2017/07/13-01:06:39        ">
   <rdf:RDF xmlns:rdf="http://www.w3.org/1999/02/22-rdf-syntax-ns#">
      <rdf:Description rdf:about=""/>
   </rdf:RDF>
</x:xmpmeta>
                                                                                                    
                                                                                                    
                                                                                                    
                                                                                                    
                                                                                                    
                                                                                                    
                                                                                                    
                                                                                                    
                                                                                                    
                                                                                                    
                                                                                                    
                                                                                                    
                                                                                                    
                                                                                                    
                                                                                                    
                                                                                                    
                                                                                                    
                                                                                                    
                                                                                                    
                                                                                                    
                           
<?xpacket end="w"?></metadata>
<defs>
    <style>
      .cls-1 {
        fill: #ddd;
        fill-rule: evenodd;
        opacity: 0.5;
      }
    </style>
  </defs>
  <path id="user-male-icon" class="cls-1" d="M25.824,9.235c4.622,0,8.37,2.549,8.37,9.968,0,2.866-4.143,11.354-8.37,11.354S17.455,22,17.455,19.2C17.455,11.652,21.2,9.235,25.824,9.235ZM20.224,23.7H31.361V35.274H20.224V23.7ZM31.487,30.46H20.333L3.511,39.276V50.153H48.067V39.1Zm-13.873-13.2S17.179,6.909,27.359,4.038L27.1,4.821l3.741-1.915-0.87,2,0.957,1.828L31.361,7.17,31.97,7.257l0.261,0.348,2.175,3.045-1.392,1.305,0.609,0.7,1.827,1.479L35.19,15l-1.131,1.566Zm0.261-1.392,0.435-5.307,0.435-1.218,1.653-.7L19.7,7.344,19.876,6.3,20.92,6.387l0.87-.7,0.957-.261,0.609,1.218Z" transform="translate(-3.5 -2.906)"/>
</svg>
